<?xml version="1.0" encoding="UTF-8" standalone="no" ?>
<!DOCTYPE svg PUBLIC "-//W3C//DTD SVG 1.1//EN" "http://www.w3.org/Graphics/SVG/1.1/DTD/svg11.dtd">
<svg xmlns="http://www.w3.org/2000/svg" xmlns:xlink="http://www.w3.org/1999/xlink" version="1.1" width="1024" height="768" viewBox="0 0 1024 768" xml:space="preserve">
<desc>Created with Fabric.js 5.3.0</desc>
<defs>
</defs>
<g transform="matrix(9.6299995293 0 0 7.2099995293 511.1691853106 382.8883435834)" id="7z7pYYZ9t8l7ZTY5ArhM1"  >
<path style="stroke: rgb(189,208,250); stroke-width: 0; stroke-dasharray: none; stroke-linecap: butt; stroke-dashoffset: 0; stroke-linejoin: miter; stroke-miterlimit: 4; fill: rgb(0,0,0); fill-rule: nonzero; opacity: 1;" vector-effect="non-scaling-stroke"  transform=" translate(0, 0)" d="M -53.11203 -53.11203 L 53.11204 -53.11203 L 53.11204 53.11204 L -53.11203 53.11204 z" stroke-linecap="round" />
</g>
<g transform="matrix(1.311408227 0 0 1.311408227 507.7510373444 265.0290456432)" id="bsME78SziweJ_AJdK7a95"  >
<g style="" vector-effect="non-scaling-stroke"   >
		<g transform="matrix(1 0 0 1 0 21.05)" id="RJcUi6-UayrfX3Tb4nFnb"  >
<path style="stroke: none; stroke-width: 1; stroke-dasharray: none; stroke-linecap: butt; stroke-dashoffset: 0; stroke-linejoin: miter; stroke-miterlimit: 4; fill: rgb(179,181,179); fill-rule: nonzero; opacity: 1;" vector-effect="non-scaling-stroke"  transform=" translate(-40, -61.1)" d="M 40 53.3 C 35.7 53.3 32.2 56.8 32.2 61.099999999999994 C 32.2 65.39999999999999 35.7 68.89999999999999 40 68.89999999999999 C 44.3 68.89999999999999 47.8 65.39999999999999 47.8 61.099999999999994 C 47.8 56.8 44.3 53.3 40 53.3 z" stroke-linecap="round" />
</g>
		<g transform="matrix(1 0 0 1 0 20.95)" id="Sf2F3d8Rx-VekjOUTScDZ"  >
<path style="stroke: none; stroke-width: 1; stroke-dasharray: none; stroke-linecap: butt; stroke-dashoffset: 0; stroke-linejoin: miter; stroke-miterlimit: 4; fill: rgb(255,255,255); fill-rule: nonzero; opacity: 1;" vector-effect="non-scaling-stroke"  transform=" translate(-40, -61)" d="M 43 61 C 43 62.6 41.7 64 40 64 C 38.3 64 37 62.7 37 61 C 37 59.4 38.3 58 40 58 C 41.7 58 43 59.4 43 61 z" stroke-linecap="round" />
</g>
		<g transform="matrix(1 0 0 1 0 6.9)" id="dAKHGkF5fZ1ipC3iYTEnN"  >
<path style="stroke: none; stroke-width: 1; stroke-dasharray: none; stroke-linecap: butt; stroke-dashoffset: 0; stroke-linejoin: miter; stroke-miterlimit: 4; fill: rgb(179,181,179); fill-rule: nonzero; opacity: 1;" vector-effect="non-scaling-stroke"  transform=" translate(-40, -46.95)" d="M 40 41.8 C 46.3 41.8 52.2 44.199999999999996 56.6 48.699999999999996 L 53.2 52.099999999999994 C 49.7 48.599999999999994 45 46.599999999999994 40 46.599999999999994 C 35 46.599999999999994 30.3 48.49999999999999 26.8 52.099999999999994 L 23.400000000000002 48.699999999999996 C 27.8 44.3 33.7 41.8 40 41.8 z" stroke-linecap="round" />
</g>
		<g transform="matrix(1 0 0 1 0 -5.75)" id="TGA0NemCyrYCG3JIEkGIF"  >
<path style="stroke: none; stroke-width: 1; stroke-dasharray: none; stroke-linecap: butt; stroke-dashoffset: 0; stroke-linejoin: miter; stroke-miterlimit: 4; fill: rgb(179,181,179); fill-rule: nonzero; opacity: 1;" vector-effect="non-scaling-stroke"  transform=" translate(-40, -34.3)" d="M 40 26.8 C 50.6 26.8 60.6 30.9 68.1 38.4 L 64.69999999999999 41.8 C 58.1 35.3 49.3 31.6 40 31.6 C 30.700000000000003 31.6 21.9 35.2 15.3 41.8 L 11.9 38.4 C 19.4 30.9 29.4 26.8 40 26.8 z" stroke-linecap="round" />
</g>
		<g transform="matrix(1 0 0 1 0 -18.85)" id="D7e_kOyn94iWjMaVnFFoV"  >
<path style="stroke: none; stroke-width: 1; stroke-dasharray: none; stroke-linecap: butt; stroke-dashoffset: 0; stroke-linejoin: miter; stroke-miterlimit: 4; fill: rgb(179,181,179); fill-rule: nonzero; opacity: 1;" vector-effect="non-scaling-stroke"  transform=" translate(-40, -21.2)" d="M 40 11.2 C 55.1 11.2 69.3 17.1 80 27.8 L 76.6 31.2 C 66.8 21.4 53.8 16 40 16 C 26.200000000000003 16 13.2 21.4 3.4 31.1 L 0 27.7 C 10.7 17 24.9 11.2 40 11.2 z" stroke-linecap="round" />
</g>
</g>
</g>
<g transform="matrix(1.3416922929 0 0 1.3416922929 507.4854771784 379.7510373444)" id="PYSFTlPPncAvxqykvvbYG"  >
<path style="stroke: none; stroke-width: 1; stroke-dasharray: none; stroke-linecap: butt; stroke-dashoffset: 0; stroke-linejoin: miter; stroke-miterlimit: 4; fill: rgb(49,168,247); fill-rule: nonzero; opacity: 1;" vector-effect="non-scaling-stroke"  transform=" translate(-39.9998891078, -40.000375)" d="M 40.826 0.326 L 79.199 36.161 C 80.002 36.911 79.471 38.256 78.373 38.256 L 73.129 38.256 C 72.46000000000001 38.256 71.918 38.798 71.918 39.467 L 71.918 78.78999999999999 C 71.918 79.45899999999999 71.376 80.00099999999999 70.70700000000001 80.00099999999999 L 55.755 80.00099999999999 C 55.086000000000006 80.00099999999999 54.544000000000004 79.45899999999999 54.544000000000004 78.78999999999999 L 54.544000000000004 49.552 C 54.544000000000004 46.261 51.876000000000005 43.593 48.58500000000001 43.593 L 31.414 43.593 C 28.123 43.593 25.455000000000002 46.261 25.455000000000002 49.55200000000001 L 25.455000000000002 78.789 C 25.455000000000002 79.458 24.913 80 24.244000000000003 80 L 9.293 80 C 8.623999999999999 80 8.081999999999999 79.458 8.081999999999999 78.789 L 8.081999999999999 39.467 C 8.081999999999999 38.798 7.539999999999999 38.256 6.870999999999999 38.256 L 1.627 38.256 C 0.528 38.256 -0.0020000000000000018 36.911 0.801 36.161 L 39.174 0.326 C 39.639 -0.109 40.361 -0.109 40.826 0.326 z" stroke-linecap="round" />
</g>
</svg>